<mxfile host="app.diagrams.net" modified="2023-11-22T08:57:14.463Z" agent="Mozilla/5.0 (Windows NT 10.0; Win64; x64) AppleWebKit/537.36 (KHTML, like Gecko) Chrome/119.0.0.0 Safari/537.36" etag="WGimE8PjqH5CxwXFwuRr" version="22.1.3" type="github">
  <diagram id="prtHgNgQTEPvFCAcTncT" name="Page-1">
    <mxGraphModel dx="799" dy="1692" grid="1" gridSize="10" guides="1" tooltips="1" connect="1" arrows="1" fold="1" page="1" pageScale="1" pageWidth="827" pageHeight="1169" math="0" shadow="0">
      <root>
        <mxCell id="0" />
        <mxCell id="1" parent="0" />
        <mxCell id="DU3Hnx858NKMjmeTB_zx-9" value="Pool" style="swimlane;childLayout=stackLayout;resizeParent=1;resizeParentMax=0;startSize=20;html=1;" vertex="1" parent="1">
          <mxGeometry x="200.00000000000045" y="-50" width="360" height="480" as="geometry" />
        </mxCell>
        <mxCell id="DU3Hnx858NKMjmeTB_zx-10" value="Lane 1" style="swimlane;startSize=20;html=1;" vertex="1" parent="DU3Hnx858NKMjmeTB_zx-9">
          <mxGeometry y="20" width="120" height="460" as="geometry" />
        </mxCell>
        <mxCell id="DU3Hnx858NKMjmeTB_zx-11" value="Lane 2" style="swimlane;startSize=20;html=1;" vertex="1" parent="DU3Hnx858NKMjmeTB_zx-9">
          <mxGeometry x="120" y="20" width="120" height="460" as="geometry" />
        </mxCell>
        <mxCell id="DU3Hnx858NKMjmeTB_zx-12" value="Lane 3" style="swimlane;startSize=20;html=1;" vertex="1" parent="DU3Hnx858NKMjmeTB_zx-9">
          <mxGeometry x="240" y="20" width="120" height="460" as="geometry" />
        </mxCell>
      </root>
    </mxGraphModel>
  </diagram>
</mxfile>
